<svg width="156" height="156" viewBox="0 0 156 156" fill="none" xmlns="http://www.w3.org/2000/svg">
<path d="M80.1856 7.82276L78.221 4.54429L76.2565 7.82276L60.1233 34.7457H29.717H26.5362L27.5449 37.7623L34.9063 59.7762L8.44874 75.6305L5.17027 77.5951L8.44874 79.5596L34.9063 95.4139L27.5449 117.428L26.5362 120.444H29.717H60.1233L76.2565 147.367L78.221 150.646L80.1856 147.367L96.3188 120.444H126.725H129.906L128.897 117.428L121.536 95.4139L147.993 79.5596L151.272 77.5951L147.993 75.6305L121.536 59.7762L128.897 37.7623L129.906 34.7457H126.725H96.3188L80.1856 7.82276Z" stroke="#050F6E" stroke-opacity="0.49" stroke-width="4.58059"/>
<path d="M78.528 19.8139L78.221 19.3016L77.914 19.8139L63.9117 43.1809H37.4936H36.9966L37.1542 43.6523L43.7342 63.3293L20.4398 77.2881L19.9276 77.595L20.4398 77.902L43.7342 91.8608L37.1542 111.538L36.9966 112.009H37.4936H63.9117L77.914 135.376L78.221 135.888L78.528 135.376L92.5303 112.009H118.948H119.445L119.288 111.538L112.708 91.8608L136.002 77.902L136.514 77.595L136.002 77.2881L112.708 63.3293L119.288 43.6523L119.445 43.1809H118.948H92.5303L78.528 19.8139Z" stroke="#050F6E" stroke-opacity="0.58" stroke-width="0.715716"/>
<path d="M80.4105 43.5524L79.3846 41.6324L78.8629 43.7761L76.7291 44.1955L78.6825 45.3046L78.3465 47.5135L80.0052 46.0048L82.0606 46.9909L81.0108 44.9394L82.673 43.3349L80.4105 43.5524Z" fill="#050F6E" fill-opacity="0.6"/>
<path d="M82.9322 46.0178C82.6466 47.3515 81.6653 48.4472 80.3714 48.8773C79.9773 49.0089 79.5645 49.0762 79.1489 49.0763C78.3373 49.0773 77.5461 48.8225 76.8876 48.3482C76.229 47.8739 75.7367 47.2042 75.4804 46.4341C75.3186 45.9534 75.2539 45.4454 75.2901 44.9394C75.3263 44.4335 75.4626 43.9398 75.6911 43.487C75.9175 43.0326 76.2317 42.6276 76.6155 42.2954C76.9994 41.9632 77.4453 41.7104 77.9274 41.5515C78.8471 41.2457 79.8481 41.2961 80.7325 41.6925L80.9238 41.3318C79.6424 40.5402 78.0463 40.3507 76.6112 40.8281C75.3135 41.2596 74.2616 42.17 73.6494 43.3913C73.0373 44.6128 72.9382 45.9991 73.3704 47.2951C73.7097 48.315 74.3618 49.2021 75.234 49.8303C76.1062 50.4585 77.1541 50.796 78.229 50.7948C78.7778 50.7948 79.3222 50.7062 79.8476 50.5317C80.8035 50.2157 81.6447 49.6242 82.2654 48.8315C82.8862 48.0389 83.2588 47.0805 83.3365 46.0767L82.9322 46.0178Z" fill="#050F6E" fill-opacity="0.68"/>
<path d="M78.2212 55.4946C78.9369 55.4946 79.624 55.8382 80.0534 56.4107C85.0205 63.0383 91.2329 67.1322 99.1631 72.3712C99.9074 72.8579 100.666 73.3732 101.453 73.8885C105.59 76.6369 107.995 81.289 107.995 86.2132C107.995 90.3071 106.377 94.0145 103.729 96.7199H52.7131C50.0792 94.0002 48.4474 90.2928 48.4474 86.2132C48.4474 81.289 50.8379 76.6369 54.989 73.8885C55.762 73.3732 56.535 72.8722 57.2793 72.3712C65.2095 67.1322 71.4219 63.0383 76.389 56.4107C76.8184 55.8382 77.5055 55.4946 78.2212 55.4946Z" fill="#050F6E" fill-opacity="0.68"/>
<path d="M79.992 61.4222L79.992 61.4221C79.5764 60.868 78.9137 60.5367 78.2212 60.5367C77.5287 60.5367 76.8659 60.868 76.4504 61.4221L76.4503 61.4222C72.4756 66.7256 67.5063 70.0085 61.087 74.2494L61.0566 74.2695L61.0566 74.2695L61.054 74.2712C60.7111 74.5021 60.3647 74.7302 60.0135 74.9615C59.7455 75.1381 59.4746 75.3165 59.2002 75.4994C55.7332 77.795 53.7403 81.6783 53.7403 85.783C53.7403 89.1856 55.1017 92.2775 57.2972 94.5446L57.4026 94.6535H57.5542H98.8881H99.0386L99.1438 94.546C101.353 92.289 102.702 89.1961 102.702 85.783C102.702 81.6775 100.697 77.7946 97.2421 75.4994L97.2401 75.498C96.9226 75.2902 96.6107 75.0823 96.3017 74.8763L96.3014 74.8761C95.993 74.6705 95.6873 74.4667 95.3843 74.2686L95.3554 74.2495C88.936 70.0085 83.9667 66.7256 79.992 61.4222Z" stroke="white" stroke-width="0.715716"/>
<rect x="50.0229" y="96.7197" width="56.3962" height="6.67291" fill="#050F6E" fill-opacity="0.58"/>
<rect x="59.4583" y="98.0831" width="37.5256" height="3.94644" stroke="white" stroke-width="0.55991"/>
<path d="M68.1676 100.965V99.4931H68.3779V100.782H69.175V100.965H68.1676ZM70.834 99.6361C70.7561 99.6361 70.6972 99.5793 70.6972 99.5057C70.6972 99.4321 70.7561 99.3732 70.834 99.3732C70.9118 99.3732 70.9707 99.43 70.9707 99.5015C70.9707 99.5772 70.9139 99.6361 70.834 99.6361ZM70.733 100.965V99.8506H70.9349V100.965H70.733ZM74.0609 99.8401C74.3322 99.8401 74.5173 99.9958 74.5173 100.324V100.965H74.3154V100.347C74.3154 100.128 74.2102 100.021 74.0272 100.021C73.8253 100.021 73.6928 100.149 73.6928 100.391V100.965H73.4909V100.347C73.4909 100.128 73.3858 100.021 73.2028 100.021C73.0009 100.021 72.8684 100.149 72.8684 100.391V100.965H72.6665V99.8506H72.86V100.017C72.9399 99.9032 73.0766 99.8401 73.2448 99.8401C73.4152 99.8401 73.5582 99.9074 73.6318 100.046C73.716 99.92 73.8716 99.8401 74.0609 99.8401ZM76.7184 100.978C76.384 100.978 76.138 100.74 76.138 100.408C76.138 100.076 76.384 99.8401 76.7184 99.8401C77.0528 99.8401 77.2968 100.076 77.2968 100.408C77.2968 100.74 77.0528 100.978 76.7184 100.978ZM76.7184 100.801C76.933 100.801 77.0928 100.646 77.0928 100.408C77.0928 100.17 76.933 100.017 76.7184 100.017C76.5039 100.017 76.342 100.17 76.342 100.408C76.342 100.646 76.5039 100.801 76.7184 100.801ZM79.2418 100.978C79.0567 100.978 78.8737 100.921 78.7812 100.848L78.8653 100.688C78.96 100.755 79.1114 100.803 79.2565 100.803C79.4437 100.803 79.5215 100.747 79.5215 100.652C79.5215 100.402 78.8169 100.618 78.8169 100.175C78.8169 99.9747 78.9957 99.8401 79.2817 99.8401C79.4269 99.8401 79.5909 99.878 79.6877 99.9411L79.6014 100.101C79.5005 100.036 79.389 100.013 79.2796 100.013C79.103 100.013 79.0167 100.078 79.0167 100.166C79.0167 100.429 79.7234 100.214 79.7234 100.648C79.7234 100.85 79.5383 100.978 79.2418 100.978ZM82.1799 99.8506H82.3734V101.373H82.1715V100.797C82.079 100.917 81.9401 100.978 81.7824 100.978C81.4564 100.978 81.2187 100.751 81.2187 100.408C81.2187 100.067 81.4564 99.8401 81.7824 99.8401C81.9465 99.8401 82.0895 99.9032 82.1799 100.027V99.8506ZM81.7992 100.801C82.0117 100.801 82.1736 100.646 82.1736 100.408C82.1736 100.172 82.0117 100.017 81.7992 100.017C81.5847 100.017 81.4228 100.172 81.4228 100.408C81.4228 100.646 81.5847 100.801 81.7992 100.801ZM84.9386 99.8506H85.1405V100.965H84.9491V100.797C84.867 100.913 84.7282 100.978 84.5705 100.978C84.2824 100.978 84.091 100.82 84.091 100.492V99.8506H84.2929V100.469C84.2929 100.688 84.4022 100.797 84.5936 100.797C84.804 100.797 84.9386 100.667 84.9386 100.427V99.8506ZM87.8783 100.414C87.8783 100.431 87.8762 100.456 87.8741 100.475H86.9697C86.995 100.671 87.1527 100.801 87.3736 100.801C87.504 100.801 87.6133 100.757 87.6953 100.667L87.8068 100.797C87.7059 100.915 87.5523 100.978 87.3673 100.978C87.0076 100.978 86.7678 100.74 86.7678 100.408C86.7678 100.078 87.0055 99.8401 87.3273 99.8401C87.6491 99.8401 87.8783 100.071 87.8783 100.414ZM87.3273 100.01C87.1338 100.01 86.9908 100.141 86.9697 100.33H87.6848C87.6638 100.143 87.5229 100.01 87.3273 100.01Z" fill="white"/>
</svg>
