<?xml version="1.0" encoding="UTF-8"?>
<!DOCTYPE svg PUBLIC "-//W3C//DTD SVG 1.1//EN" "http://www.w3.org/Graphics/SVG/1.1/DTD/svg11.dtd">
<svg xmlns="http://www.w3.org/2000/svg" version="1.1" width="512px" height="512px" style="shape-rendering:geometricPrecision; text-rendering:geometricPrecision; image-rendering:optimizeQuality; fill-rule:evenodd; clip-rule:evenodd" xmlns:xlink="http://www.w3.org/1999/xlink">
<g><path style="opacity:0.957" fill="#050505" d="M 239.5,-0.5 C 242.167,-0.5 244.833,-0.5 247.5,-0.5C 255.79,10.0436 263.624,21.0436 271,32.5C 271.333,23.1667 271.667,13.8333 272,4.5C 272.697,2.4156 273.864,0.748938 275.5,-0.5C 278.167,-0.5 280.833,-0.5 283.5,-0.5C 285.144,0.316435 286.31,1.64977 287,3.5C 287.667,23.1667 287.667,42.8333 287,62.5C 282,67.8333 277,67.8333 272,62.5C 265.58,52.6593 258.913,42.9926 252,33.5C 251.667,43.1667 251.333,52.8333 251,62.5C 246.625,67.3815 241.958,67.7148 237,63.5C 235.358,43.9231 235.025,24.2564 236,4.5C 236.997,2.67694 238.164,1.01027 239.5,-0.5 Z"/></g>
<g><path style="opacity:0.938" fill="#050505" d="M 306.5,27.5 C 389.211,45.9261 446.711,94.2594 479,172.5C 481.267,179.136 483.434,185.802 485.5,192.5C 484.39,197.276 481.39,199.943 476.5,200.5C 473.786,200.06 471.62,198.726 470,196.5C 448.379,128.216 404.546,80.3829 338.5,53C 327.404,48.8567 316.07,45.5234 304.5,43C 298.87,36.9882 299.537,31.8215 306.5,27.5 Z"/></g>
<g><path style="opacity:0.939" fill="#050505" d="M 208.5,28.5 C 215.841,28.4995 219.008,32.1661 218,39.5C 217.215,41.286 216.049,42.786 214.5,44C 151.855,59.5394 104.355,95.0394 72,150.5C 64.1623,166.013 57.4956,182.013 52,198.5C 48.5469,201.769 44.7135,202.269 40.5,200C 38.0364,197.274 37.2031,194.107 38,190.5C 65.8097,105.863 122.643,51.8629 208.5,28.5 Z"/></g>
<g><path style="opacity:0.971" fill="#070707" d="M 283.5,337.5 C 282.207,335.704 280.707,334.037 279,332.5C 278.333,329.833 278.333,327.167 279,324.5C 282.333,313.167 285.667,301.833 289,290.5C 289.792,288.413 290.959,286.579 292.5,285C 326.585,275.917 360.585,266.584 394.5,257C 360.027,247.285 325.86,236.785 292,225.5C 282.174,191.195 272.508,156.862 263,122.5C 258.343,137.461 253.843,152.461 249.5,167.5C 244.578,183.77 239.744,200.104 235,216.5C 234.261,220.062 232.761,223.228 230.5,226C 196.401,235.025 162.401,244.358 128.5,254C 162.56,264.131 196.56,274.464 230.5,285C 231.701,285.903 232.535,287.069 233,288.5C 237.899,306.832 242.732,325.166 247.5,343.5C 251.818,358.437 255.985,373.437 260,388.5C 262.135,381.094 264.469,373.761 267,366.5C 269.546,363.814 272.713,362.814 276.5,363.5C 280.942,365.39 282.442,368.723 281,373.5C 276.178,389.121 271.511,404.788 267,420.5C 264.398,424.212 260.898,425.378 256.5,424C 254.333,423.167 252.833,421.667 252,419.5C 245.121,392.977 237.788,366.644 230,340.5C 196.407,359.381 162.574,377.881 128.5,396C 122.074,397.459 118.408,394.959 117.5,388.5C 118.099,385.298 119.266,382.298 121,379.5C 139.167,348 157.333,316.5 175.5,285C 149.402,276.413 123.068,268.413 96.5,261C 92.7882,258.398 91.6215,254.898 93,250.5C 93.8333,248.333 95.3333,246.833 97.5,246C 126.289,238.47 154.956,230.637 183.5,222.5C 195.868,219.712 208.202,216.712 220.5,213.5C 223.133,204.116 225.633,194.782 228,185.5C 201.667,170.167 175.333,154.833 149,139.5C 157.071,156.303 165.738,172.97 175,189.5C 176.245,193.765 175.078,197.098 171.5,199.5C 167.906,201.081 164.739,200.414 162,197.5C 147.363,171.891 133.53,145.891 120.5,119.5C 121.408,113.041 125.074,110.541 131.5,112C 165.081,131.04 198.581,150.207 232,169.5C 240.454,143.362 248.454,117.029 256,90.5C 258.955,86.7235 262.788,85.5568 267.5,87C 269.049,88.214 270.215,89.714 271,91.5C 278.135,117.902 285.468,144.235 293,170.5C 326.593,151.619 360.426,133.119 394.5,115C 400.926,113.541 404.592,116.041 405.5,122.5C 404.901,125.702 403.734,128.702 402,131.5C 383.833,163 365.667,194.5 347.5,226C 373.719,234.182 400.052,242.182 426.5,250C 428.333,250.5 429.5,251.667 430,253.5C 431.724,258.731 430.224,262.565 425.5,265C 398.977,271.879 372.644,279.212 346.5,287C 365.381,320.593 383.881,354.426 402,388.5C 402.005,399.09 397.172,401.923 387.5,397C 352.941,376.89 318.275,357.057 283.5,337.5 Z"/></g>
<g><path style="opacity:1" fill="#5a6d80" d="M 283.5,337.5 C 281.166,346.167 278.833,354.834 276.5,363.5C 272.713,362.814 269.546,363.814 267,366.5C 264.469,373.761 262.135,381.094 260,388.5C 255.985,373.437 251.818,358.437 247.5,343.5C 254.835,321.444 261.502,299.444 267.5,277.5C 283.235,270.136 287.402,258.469 280,242.5C 276.701,238.118 272.534,235.118 267.5,233.5C 268.097,233.265 268.43,232.765 268.5,232C 262.214,210.327 255.881,188.827 249.5,167.5C 253.843,152.461 258.343,137.461 263,122.5C 272.508,156.862 282.174,191.195 292,225.5C 325.86,236.785 360.027,247.285 394.5,257C 360.585,266.584 326.585,275.917 292.5,285C 290.959,286.579 289.792,288.413 289,290.5C 285.667,301.833 282.333,313.167 279,324.5C 278.333,327.167 278.333,329.833 279,332.5C 280.707,334.037 282.207,335.704 283.5,337.5 Z"/></g>
<g><path style="opacity:0.997" fill="#fcd271" d="M 183.5,222.5 C 179.768,214.703 175.768,207.036 171.5,199.5C 175.078,197.098 176.245,193.765 175,189.5C 165.738,172.97 157.071,156.303 149,139.5C 175.333,154.833 201.667,170.167 228,185.5C 225.633,194.782 223.133,204.116 220.5,213.5C 208.202,216.712 195.868,219.712 183.5,222.5 Z"/></g>
<g><path style="opacity:1" fill="#fbc037" d="M 310.5,216.5 C 321.099,198.301 331.432,179.968 341.5,161.5C 353.181,154.494 365.181,148.327 377.5,143C 362.207,169.085 347.04,195.252 332,221.5C 331.439,222.022 330.772,222.355 330,222.5C 323.493,220.417 316.993,218.417 310.5,216.5 Z"/></g>
<g><path style="opacity:1" fill="#fbd271" d="M 341.5,161.5 C 331.432,179.968 321.099,198.301 310.5,216.5C 307.695,216.182 305.361,215.015 303.5,213C 301.334,205.503 299.167,198.003 297,190.5C 296.202,188.741 296.369,187.074 297.5,185.5C 312.194,177.488 326.86,169.488 341.5,161.5 Z"/></g>
<g><path style="opacity:1" fill="#6a8097" d="M 249.5,167.5 C 255.881,188.827 262.214,210.327 268.5,232C 268.43,232.765 268.097,233.265 267.5,233.5C 250.976,231.542 241.642,238.709 239.5,255C 241.185,271.84 250.518,279.34 267.5,277.5C 261.502,299.444 254.835,321.444 247.5,343.5C 242.732,325.166 237.899,306.832 233,288.5C 232.535,287.069 231.701,285.903 230.5,285C 196.56,274.464 162.56,264.131 128.5,254C 162.401,244.358 196.401,235.025 230.5,226C 232.761,223.228 234.261,220.062 235,216.5C 239.744,200.104 244.578,183.77 249.5,167.5 Z"/></g>
<g><path style="opacity:0.947" fill="#050505" d="M 9.5,221.5 C 13.6034,220.769 17.1034,221.769 20,224.5C 22.6894,236.591 25.6894,248.591 29,260.5C 30.8865,256.56 33.3865,253.06 36.5,250C 39.9643,249.183 43.2976,249.517 46.5,251C 48.5431,254.253 50.7098,257.42 53,260.5C 55.533,248.035 58.533,235.702 62,223.5C 66.6647,220.544 70.9981,220.878 75,224.5C 75.8749,225.873 76.3749,227.373 76.5,229C 72.4609,247.529 68.2943,266.029 64,284.5C 61.1486,289.48 56.9819,290.813 51.5,288.5C 47.7513,283.338 44.2513,278.004 41,272.5C 37.3763,277.58 33.8763,282.747 30.5,288C 25.9617,290.303 21.795,289.803 18,286.5C 13.7458,269.23 9.74582,251.896 6,234.5C 5.33333,231.167 5.33333,227.833 6,224.5C 7.14508,223.364 8.31174,222.364 9.5,221.5 Z"/></g>
<g><path style="opacity:0.937" fill="#050505" d="M 460.5,221.5 C 474.504,221.333 488.504,221.5 502.5,222C 503.416,222.374 504.25,222.874 505,223.5C 506.483,226.702 506.817,230.036 506,233.5C 505.5,235.333 504.333,236.5 502.5,237C 492.172,237.5 481.839,237.666 471.5,237.5C 471.5,240.5 471.5,243.5 471.5,246.5C 479.903,246.13 488.236,246.63 496.5,248C 501.833,252.667 501.833,257.333 496.5,262C 488.173,262.5 479.84,262.666 471.5,262.5C 471.5,266.167 471.5,269.833 471.5,273.5C 481.839,273.334 492.172,273.5 502.5,274C 504.333,274.5 505.5,275.667 506,277.5C 506.667,280.167 506.667,282.833 506,285.5C 505.5,287.333 504.333,288.5 502.5,289C 488.5,289.667 474.5,289.667 460.5,289C 459.069,288.535 457.903,287.701 457,286.5C 455.358,266.59 455.025,246.59 456,226.5C 457.025,224.313 458.525,222.646 460.5,221.5 Z"/></g>
<g><path style="opacity:1" fill="#080809" d="M 267.5,233.5 C 272.534,235.118 276.701,238.118 280,242.5C 287.402,258.469 283.235,270.136 267.5,277.5C 250.518,279.34 241.185,271.84 239.5,255C 241.642,238.709 250.976,231.542 267.5,233.5 Z"/></g>
<g><path style="opacity:1" fill="#dde9f5" d="M 257.5,248.5 C 263.979,246.784 267.979,249.117 269.5,255.5C 267.969,262.044 263.969,264.211 257.5,262C 253.541,257.501 253.541,253.001 257.5,248.5 Z"/></g>
<g><path style="opacity:1" fill="#fbd271" d="M 191.5,288.5 C 201.145,291.216 210.645,294.216 220,297.5C 222,304.833 224,312.167 226,319.5C 226.808,321.579 226.641,323.579 225.5,325.5C 199.13,340.515 172.463,354.681 145.5,368C 160.971,341.554 176.305,315.054 191.5,288.5 Z"/></g>
<g><path style="opacity:1" fill="#fbc037" d="M 338.5,350.5 C 329.088,332.009 319.421,313.675 309.5,295.5C 315.92,293.603 322.42,291.937 329,290.5C 329.833,290.833 330.667,291.167 331.5,291.5C 345.96,317.587 360.294,343.753 374.5,370C 362.174,364.333 350.174,357.833 338.5,350.5 Z"/></g>
<g><path style="opacity:1" fill="#fad170" d="M 309.5,295.5 C 319.421,313.675 329.088,332.009 338.5,350.5C 323.946,342.305 309.446,333.972 295,325.5C 296.803,315.752 299.636,306.252 303.5,297C 305.518,296.495 307.518,295.995 309.5,295.5 Z"/></g>
<g><path style="opacity:0.939" fill="#050505" d="M 475.5,305.5 C 481.925,304.534 485.592,307.201 486.5,313.5C 465.944,387.886 420.278,440.386 349.5,471C 337.025,476.047 324.192,479.881 311,482.5C 305.788,482.441 302.955,479.774 302.5,474.5C 302.833,471.99 303.833,469.823 305.5,468C 381.204,449.568 434.037,404.401 464,332.5C 466.535,325.228 468.868,317.895 471,310.5C 472.025,308.313 473.525,306.646 475.5,305.5 Z"/></g>
<g><path style="opacity:0.94" fill="#050505" d="M 43.5,309.5 C 47.4257,309.047 50.5923,310.38 53,313.5C 72.8505,379.686 114.35,426.852 177.5,455C 188.227,459.464 199.227,463.131 210.5,466C 216.587,473.061 215.254,478.227 206.5,481.5C 133.855,462.019 81.3546,418.352 49,350.5C 44.1719,339.682 40.3385,328.516 37.5,317C 37.8864,313.122 39.8864,310.622 43.5,309.5 Z"/></g>
<g><path style="opacity:0.938" fill="#050505" d="M 271.5,511.5 C 264.833,511.5 258.167,511.5 251.5,511.5C 244.624,509.643 238.457,506.309 233,501.5C 230.327,492.172 233.827,488.005 243.5,489C 252.497,496.238 262.163,497.572 272.5,493C 276.989,487.623 275.989,483.623 269.5,481C 260.051,481.519 251.051,479.852 242.5,476C 230.301,464.031 230.634,452.365 243.5,441C 257.46,434.423 270.293,436.256 282,446.5C 284.115,453.612 281.615,457.945 274.5,459.5C 269.912,456.374 264.912,454.041 259.5,452.5C 255.695,452.985 252.529,454.652 250,457.5C 249.908,461.089 251.741,463.256 255.5,464C 262.551,464.211 269.551,464.878 276.5,466C 288.186,471.033 293.019,479.866 291,492.5C 287.888,502.447 281.388,508.781 271.5,511.5 Z"/></g>
</svg>
