<?xml version="1.0" encoding="UTF-8"?>
<!DOCTYPE svg PUBLIC "-//W3C//DTD SVG 1.1//EN" "http://www.w3.org/Graphics/SVG/1.1/DTD/svg11.dtd">
<svg xmlns="http://www.w3.org/2000/svg" version="1.1" width="512px" height="512px" style="shape-rendering:geometricPrecision; text-rendering:geometricPrecision; image-rendering:optimizeQuality; fill-rule:evenodd; clip-rule:evenodd" xmlns:xlink="http://www.w3.org/1999/xlink">
<g><path style="opacity:0.988" fill="#000000" d="M 248.5,-0.5 C 253.167,-0.5 257.833,-0.5 262.5,-0.5C 265.9,1.03697 269.233,2.8703 272.5,5C 350.333,82.8333 428.167,160.667 506,238.5C 508.13,241.767 509.963,245.1 511.5,248.5C 511.5,253.167 511.5,257.833 511.5,262.5C 509.963,265.9 508.13,269.233 506,272.5C 428.167,350.333 350.333,428.167 272.5,506C 269.233,508.13 265.9,509.963 262.5,511.5C 257.833,511.5 253.167,511.5 248.5,511.5C 245.1,509.963 241.767,508.13 238.5,506C 160.667,428.167 82.8333,350.333 5,272.5C 2.8703,269.233 1.03697,265.9 -0.5,262.5C -0.5,257.833 -0.5,253.167 -0.5,248.5C 1.03697,245.1 2.8703,241.767 5,238.5C 82.8333,160.667 160.667,82.8333 238.5,5C 241.767,2.8703 245.1,1.03697 248.5,-0.5 Z M 307.5,142.5 C 336.965,171.465 366.299,200.632 395.5,230C 366.333,259.167 337.167,288.333 308,317.5C 307.5,296.503 307.333,275.503 307.5,254.5C 272.833,254.5 238.167,254.5 203.5,254.5C 203.5,280.167 203.5,305.833 203.5,331.5C 186.833,331.5 170.167,331.5 153.5,331.5C 153.333,296.165 153.5,260.832 154,225.5C 157.057,213.776 164.557,206.942 176.5,205C 220.165,204.5 263.832,204.333 307.5,204.5C 307.5,183.833 307.5,163.167 307.5,142.5 Z"/></g>
</svg>
