<svg width="347" height="99" viewBox="0 0 347 99" fill="none" xmlns="http://www.w3.org/2000/svg">
<path d="M50.6395 5.25522L49.3966 3.1811L48.1538 5.25522L37.9471 22.288H18.7106H16.6982L17.3364 24.1965L21.9936 38.1235L5.25522 48.1538L3.1811 49.3966L5.25522 50.6395L21.9936 60.6697L17.3364 74.5968L16.6982 76.5053H18.7106H37.9471L48.1538 93.5381L49.3966 95.6122L50.6395 93.5381L60.8462 76.5053H80.0827H82.095L81.4569 74.5968L76.7997 60.6697L93.5381 50.6395L95.6122 49.3966L93.5381 48.1538L76.7997 38.1235L81.4569 24.1965L82.095 22.288H80.0827H60.8462L50.6395 5.25522Z" stroke="white" stroke-opacity="0.49" stroke-width="2.89791"/>
<path d="M49.5908 12.8414L49.3966 12.5173L49.2024 12.8414L40.3438 27.6246H23.6304H23.316L23.4157 27.9228L27.5785 40.3714L12.8414 49.2024L12.5173 49.3966L12.8414 49.5908L27.5785 58.4219L23.4157 70.8705L23.316 71.1687H23.6304H40.3438L49.2024 85.9519L49.3966 86.276L49.5908 85.9519L58.4494 71.1687H75.1628H75.4772L75.3775 70.8705L71.2147 58.4219L85.9519 49.5908L86.2759 49.3966L85.9519 49.2024L71.2147 40.3714L75.3775 27.9228L75.4772 27.6246H75.1628H58.4494L49.5908 12.8414Z" stroke="white" stroke-opacity="0.58" stroke-width="0.452798"/>
<path d="M50.7818 27.8596L50.1328 26.6449L49.8027 28.001L48.4528 28.2664L49.6886 28.9681L49.476 30.3655L50.5254 29.411L51.8258 30.035L51.1616 28.737L52.2132 27.722L50.7818 27.8596Z" fill="white" fill-opacity="0.6"/>
<path d="M52.3772 29.4193C52.1965 30.2631 51.5757 30.9562 50.7571 31.2283C50.5077 31.3116 50.2466 31.3542 49.9837 31.3543C49.4702 31.3549 48.9697 31.1937 48.553 30.8936C48.1364 30.5936 47.8249 30.1698 47.6628 29.6827C47.5605 29.3785 47.5195 29.0571 47.5424 28.7371C47.5653 28.417 47.6515 28.1047 47.7961 27.8182C47.9393 27.5307 48.1381 27.2745 48.3809 27.0643C48.6238 26.8541 48.9059 26.6942 49.2109 26.5937C49.7928 26.4002 50.426 26.4321 50.9856 26.6829L51.1066 26.4547C50.2959 25.9539 49.2861 25.834 48.3782 26.136C47.5572 26.409 46.8917 26.985 46.5044 27.7576C46.1172 28.5304 46.0545 29.4075 46.3279 30.2273C46.5426 30.8726 46.9551 31.4338 47.5069 31.8313C48.0587 32.2287 48.7217 32.4422 49.4017 32.4414C49.7489 32.4414 50.0933 32.3854 50.4257 32.275C51.0305 32.0751 51.5626 31.7009 51.9554 31.1994C52.3481 30.6979 52.5838 30.0916 52.633 29.4565L52.3772 29.4193Z" fill="white" fill-opacity="0.68"/>
<path d="M49.3966 35.4148C49.8494 35.4148 50.2841 35.6321 50.5558 35.9944C53.6982 40.1873 57.6285 42.7773 62.6455 46.0918C63.1164 46.3997 63.5964 46.7257 64.0944 47.0517C66.7116 48.7904 68.233 51.7336 68.233 54.8489C68.233 57.4389 67.2097 59.7844 65.5343 61.4959H33.2589C31.5926 59.7753 30.5602 57.4298 30.5602 54.8489C30.5602 51.7336 32.0726 48.7904 34.6988 47.0517C35.1878 46.7257 35.6769 46.4087 36.1478 46.0918C41.1648 42.7773 45.0951 40.1873 48.2375 35.9944C48.5091 35.6321 48.9438 35.4148 49.3966 35.4148Z" fill="white" fill-opacity="0.68"/>
<path d="M50.517 39.1649L50.5169 39.1648C50.254 38.8143 49.8347 38.6047 49.3966 38.6047C48.9585 38.6047 48.5392 38.8143 48.2763 39.1648L48.2763 39.1649C45.7617 42.5201 42.6179 44.597 38.5567 47.28L38.5375 47.2927L38.5375 47.2927L38.5358 47.2938C38.3189 47.4399 38.0998 47.5842 37.8776 47.7305C37.708 47.8422 37.5366 47.9551 37.363 48.0708C35.1696 49.5231 33.9088 51.9799 33.9088 54.5767C33.9088 56.7294 34.7701 58.6855 36.1591 60.1198L36.2258 60.1887H36.3217H62.4716H62.5668L62.6333 60.1206C64.031 58.6928 64.8844 56.736 64.8844 54.5767C64.8844 51.9794 63.6159 49.5229 61.4302 48.0708L61.4289 48.07C61.2281 47.9385 61.0308 47.807 60.8353 47.6766L60.8349 47.6764C60.6398 47.5463 60.4465 47.4175 60.2549 47.2922L60.2366 47.2801C56.1754 44.597 53.0315 42.5201 50.517 39.1649Z" stroke="white" stroke-width="0.452798"/>
<rect x="31.5571" y="61.4958" width="35.679" height="4.22161" fill="white" fill-opacity="0.58"/>
<rect x="37.5264" y="62.3584" width="23.7406" height="2.49672" stroke="white" stroke-width="0.354227"/>
<path d="M43.0363 63.9165V62.9851H43.1694V63.8007H43.6737V63.9165H43.0363ZM44.6593 63.9165V63.2113H44.7871V63.9165H44.6593ZM44.7232 63.0756C44.6984 63.0756 44.6775 63.0676 44.6607 63.0516C44.6447 63.0357 44.6367 63.0161 44.6367 62.9931C44.6367 62.9691 44.6447 62.9492 44.6607 62.9332C44.6775 62.9172 44.6984 62.9092 44.7232 62.9092C44.748 62.9092 44.7684 62.9172 44.7844 62.9332C44.8013 62.9483 44.8097 62.9673 44.8097 62.9904C44.8097 63.0144 44.8017 63.0348 44.7857 63.0516C44.7698 63.0676 44.7489 63.0756 44.7232 63.0756ZM46.7647 63.2046C46.8215 63.2046 46.8716 63.2157 46.9151 63.2379C46.9586 63.2601 46.9923 63.2938 47.0162 63.339C47.041 63.3843 47.0535 63.4415 47.0535 63.5107V63.9165H46.9257V63.5253C46.9257 63.457 46.9098 63.4056 46.8778 63.371C46.8459 63.3364 46.8011 63.3191 46.7434 63.3191C46.7009 63.3191 46.6636 63.3279 46.6317 63.3457C46.5997 63.3634 46.5749 63.3896 46.5572 63.4242C46.5403 63.4588 46.5319 63.5018 46.5319 63.5533V63.9165H46.4041V63.5253C46.4041 63.457 46.3882 63.4056 46.3562 63.371C46.3252 63.3364 46.2804 63.3191 46.2218 63.3191C46.1802 63.3191 46.1433 63.3279 46.1114 63.3457C46.0795 63.3634 46.0546 63.3896 46.0369 63.4242C46.0192 63.4588 46.0103 63.5018 46.0103 63.5533V63.9165H45.8825V63.2113H46.005V63.3989L45.985 63.351C46.0072 63.3049 46.0413 63.2689 46.0875 63.2432C46.1336 63.2175 46.1873 63.2046 46.2485 63.2046C46.3159 63.2046 46.374 63.2215 46.4228 63.2552C46.4716 63.288 46.5035 63.3381 46.5186 63.4056L46.4667 63.3843C46.488 63.3302 46.5252 63.2867 46.5784 63.2539C46.6317 63.221 46.6938 63.2046 46.7647 63.2046ZM48.4421 63.9245C48.3712 63.9245 48.3082 63.909 48.2532 63.8779C48.1982 63.8469 48.1547 63.8043 48.1228 63.7502C48.0908 63.6952 48.0749 63.6331 48.0749 63.5639C48.0749 63.4938 48.0908 63.4317 48.1228 63.3776C48.1547 63.3235 48.1982 63.2814 48.2532 63.2512C48.3082 63.2202 48.3712 63.2046 48.4421 63.2046C48.5122 63.2046 48.5747 63.2202 48.6297 63.2512C48.6856 63.2814 48.7291 63.3235 48.7601 63.3776C48.7921 63.4308 48.808 63.4929 48.808 63.5639C48.808 63.634 48.7921 63.6961 48.7601 63.7502C48.7291 63.8043 48.6856 63.8469 48.6297 63.8779C48.5747 63.909 48.5122 63.9245 48.4421 63.9245ZM48.4421 63.8127C48.4874 63.8127 48.5277 63.8025 48.5632 63.7821C48.5996 63.7617 48.628 63.7329 48.6484 63.6956C48.6688 63.6575 48.679 63.6136 48.679 63.5639C48.679 63.5133 48.6688 63.4699 48.6484 63.4335C48.628 63.3962 48.5996 63.3674 48.5632 63.347C48.5277 63.3266 48.4874 63.3164 48.4421 63.3164C48.3969 63.3164 48.3565 63.3266 48.321 63.347C48.2856 63.3674 48.2572 63.3962 48.2359 63.4335C48.2146 63.4699 48.2039 63.5133 48.2039 63.5639C48.2039 63.6136 48.2146 63.6575 48.2359 63.6956C48.2572 63.7329 48.2856 63.7617 48.321 63.7821C48.3565 63.8025 48.3969 63.8127 48.4421 63.8127ZM50.0385 63.9245C49.98 63.9245 49.9241 63.9165 49.8709 63.9005C49.8185 63.8846 49.7773 63.8651 49.7471 63.842L49.8003 63.7409C49.8305 63.7613 49.8678 63.7786 49.9121 63.7928C49.9565 63.807 50.0017 63.814 50.0478 63.814C50.1073 63.814 50.1498 63.8056 50.1756 63.7888C50.2022 63.7719 50.2155 63.7484 50.2155 63.7182C50.2155 63.6961 50.2075 63.6788 50.1915 63.6664C50.1756 63.6539 50.1543 63.6446 50.1277 63.6384C50.1019 63.6322 50.0731 63.6269 50.0412 63.6224C50.0092 63.6171 49.9773 63.6109 49.9454 63.6038C49.9134 63.5958 49.8842 63.5852 49.8576 63.5719C49.8309 63.5577 49.8097 63.5386 49.7937 63.5147C49.7777 63.4898 49.7697 63.457 49.7697 63.4162C49.7697 63.3736 49.7817 63.3364 49.8057 63.3044C49.8296 63.2725 49.8633 63.2481 49.9068 63.2312C49.9511 63.2135 50.0035 63.2046 50.0638 63.2046C50.1099 63.2046 50.1565 63.2104 50.2035 63.2219C50.2514 63.2326 50.2904 63.2481 50.3206 63.2685L50.2661 63.3696C50.2341 63.3483 50.2009 63.3337 50.1663 63.3257C50.1317 63.3177 50.0971 63.3137 50.0625 63.3137C50.0066 63.3137 49.9649 63.3231 49.9374 63.3417C49.9099 63.3594 49.8961 63.3825 49.8961 63.4109C49.8961 63.4348 49.9041 63.4535 49.9201 63.4668C49.937 63.4792 49.9582 63.4889 49.984 63.496C50.0106 63.5031 50.0399 63.5093 50.0718 63.5147C50.1037 63.5191 50.1357 63.5253 50.1676 63.5333C50.1995 63.5404 50.2284 63.5506 50.2541 63.5639C50.2807 63.5772 50.302 63.5958 50.3179 63.6198C50.3348 63.6437 50.3432 63.6757 50.3432 63.7156C50.3432 63.7582 50.3308 63.795 50.306 63.826C50.2811 63.8571 50.2461 63.8815 50.2009 63.8992C50.1556 63.9161 50.1015 63.9245 50.0385 63.9245ZM51.6458 63.9245C51.5775 63.9245 51.5163 63.9094 51.4622 63.8792C51.409 63.8491 51.3669 63.807 51.3358 63.7528C51.3048 63.6987 51.2892 63.6357 51.2892 63.5639C51.2892 63.492 51.3048 63.4295 51.3358 63.3763C51.3669 63.3222 51.409 63.28 51.4622 63.2499C51.5163 63.2197 51.5775 63.2046 51.6458 63.2046C51.7071 63.2046 51.7616 63.2179 51.8095 63.2446C51.8574 63.2712 51.8951 63.3111 51.9226 63.3643C51.951 63.4175 51.9652 63.4841 51.9652 63.5639C51.9652 63.6437 51.9506 63.7103 51.9213 63.7635C51.8929 63.8167 51.8547 63.8571 51.8068 63.8846C51.7589 63.9112 51.7053 63.9245 51.6458 63.9245ZM51.6565 63.8127C51.7008 63.8127 51.7408 63.8025 51.7762 63.7821C51.8126 63.7617 51.841 63.7329 51.8614 63.6956C51.8827 63.6575 51.8933 63.6136 51.8933 63.5639C51.8933 63.5133 51.8827 63.4699 51.8614 63.4335C51.841 63.3962 51.8126 63.3674 51.7762 63.347C51.7408 63.3266 51.7008 63.3164 51.6565 63.3164C51.6113 63.3164 51.5709 63.3266 51.5354 63.347C51.4999 63.3674 51.4715 63.3962 51.4502 63.4335C51.429 63.4699 51.4183 63.5133 51.4183 63.5639C51.4183 63.6136 51.429 63.6575 51.4502 63.6956C51.4715 63.7329 51.4999 63.7617 51.5354 63.7821C51.5709 63.8025 51.6113 63.8127 51.6565 63.8127ZM51.892 64.1746V63.7289L51.9053 63.5652L51.8973 63.4016V63.2113H52.0197V64.1746H51.892ZM53.4097 63.9245C53.3494 63.9245 53.2962 63.9134 53.2501 63.8912C53.2048 63.869 53.1693 63.8353 53.1436 63.7901C53.1188 63.744 53.1064 63.6863 53.1064 63.6171V63.2113H53.2341V63.6025C53.2341 63.6717 53.2505 63.7236 53.2833 63.7582C53.317 63.7928 53.364 63.8101 53.4244 63.8101C53.4687 63.8101 53.5073 63.8012 53.5401 63.7834C53.573 63.7648 53.5982 63.7382 53.616 63.7036C53.6337 63.6681 53.6426 63.6255 53.6426 63.5759V63.2113H53.7703V63.9165H53.6492V63.7262L53.6692 63.7768C53.6461 63.8238 53.6115 63.8602 53.5654 63.8859C53.5193 63.9116 53.4674 63.9245 53.4097 63.9245ZM55.1791 63.9245C55.1037 63.9245 55.0372 63.909 54.9795 63.8779C54.9227 63.8469 54.8784 63.8043 54.8464 63.7502C54.8154 63.6961 54.7999 63.634 54.7999 63.5639C54.7999 63.4938 54.815 63.4317 54.8451 63.3776C54.8762 63.3235 54.9183 63.2814 54.9715 63.2512C55.0256 63.2202 55.0864 63.2046 55.1538 63.2046C55.2221 63.2046 55.2824 63.2197 55.3348 63.2499C55.3871 63.28 55.4279 63.3226 55.4572 63.3776C55.4873 63.4317 55.5024 63.4952 55.5024 63.5679C55.5024 63.5732 55.502 63.5794 55.5011 63.5865C55.5011 63.5936 55.5007 63.6003 55.4998 63.6065H54.8997V63.5147H55.4332L55.3813 63.5466C55.3822 63.5014 55.3729 63.461 55.3534 63.4255C55.3339 63.39 55.3068 63.3625 55.2722 63.343C55.2385 63.3226 55.1991 63.3124 55.1538 63.3124C55.1095 63.3124 55.07 63.3226 55.0354 63.343C55.0008 63.3625 54.9737 63.3905 54.9542 63.4268C54.9347 63.4623 54.925 63.5031 54.925 63.5493V63.5706C54.925 63.6176 54.9356 63.6597 54.9569 63.697C54.9791 63.7333 55.0097 63.7617 55.0487 63.7821C55.0877 63.8025 55.1325 63.8127 55.1831 63.8127C55.2248 63.8127 55.2625 63.8056 55.2962 63.7914C55.3308 63.7772 55.3609 63.7559 55.3867 63.7276L55.4572 63.8101C55.4253 63.8473 55.3853 63.8757 55.3374 63.8952C55.2904 63.9147 55.2376 63.9245 55.1791 63.9245Z" fill="white"/>
<path d="M136.961 57.2771V48.4426H143.339V60.6817C140.021 63.1812 135.453 64.5171 131.143 64.5171C121.662 64.5171 114.681 58.0097 114.681 48.9166C114.681 39.8235 121.662 33.3161 131.272 33.3161C136.573 33.3161 140.969 35.1261 143.899 38.5306L139.417 42.6678C137.22 40.3406 134.677 39.2632 131.617 39.2632C125.756 39.2632 121.748 43.1849 121.748 48.9166C121.748 54.5621 125.756 58.57 131.531 58.57C133.427 58.57 135.194 58.2252 136.961 57.2771ZM149.824 64V33.8332H156.806V64H149.824ZM173.877 64.5171C169.093 64.5171 164.267 63.095 161.595 61.0264L163.965 55.7688C166.508 57.6219 170.3 58.9147 173.92 58.9147C178.057 58.9147 179.738 57.5357 179.738 55.6826C179.738 50.0371 162.198 53.9157 162.198 42.7109C162.198 37.5825 166.335 33.3161 174.911 33.3161C178.704 33.3161 182.582 34.2211 185.383 35.988L183.229 41.2887C180.427 39.6942 177.54 38.9185 174.868 38.9185C170.731 38.9185 169.136 40.4699 169.136 42.3661C169.136 47.9254 186.676 44.0899 186.676 55.1654C186.676 60.2076 182.496 64.5171 173.877 64.5171ZM237.654 64H231.103L231.06 45.8999L222.183 60.8109H219.037L210.202 46.2878V64H203.651V33.8332H209.426L220.717 52.5797L231.836 33.8332H237.568L237.654 64ZM253.689 40.4699C260.756 40.4699 264.85 43.7452 264.85 50.7697V64H258.558V61.1126C257.309 63.2243 254.895 64.3448 251.491 64.3448C246.061 64.3448 242.829 61.3281 242.829 57.3202C242.829 53.2262 245.716 50.3819 252.784 50.3819H258.127C258.127 47.4945 256.404 45.8137 252.784 45.8137C250.327 45.8137 247.785 46.6326 246.104 47.9685L243.69 43.2711C246.233 41.4611 249.982 40.4699 253.689 40.4699ZM253.171 59.8197C255.412 59.8197 257.352 58.7855 258.127 56.6738V54.3035H253.516C250.37 54.3035 249.379 55.4671 249.379 57.0185C249.379 58.6993 250.801 59.8197 253.171 59.8197ZM278.735 64.3448C274.813 64.3448 270.849 63.2674 268.694 61.8452L270.935 57.0185C273.003 58.3545 276.149 59.2595 278.994 59.2595C282.097 59.2595 283.26 58.4407 283.26 57.1478C283.26 53.3554 269.254 57.234 269.254 47.9685C269.254 43.5728 273.219 40.4699 279.985 40.4699C283.174 40.4699 286.708 41.2025 288.906 42.4954L286.665 47.279C284.381 45.9861 282.097 45.5552 279.985 45.5552C276.968 45.5552 275.675 46.5033 275.675 47.7099C275.675 51.6747 289.681 47.8392 289.681 56.9755C289.681 61.285 285.673 64.3448 278.735 64.3448ZM297.492 37.5825C294.993 37.5825 293.312 35.9449 293.312 33.8332C293.312 31.7216 294.993 30.0839 297.492 30.0839C299.992 30.0839 301.673 31.6354 301.673 33.7039C301.673 35.9449 299.992 37.5825 297.492 37.5825ZM292.105 72.7053C290.037 72.7053 288.011 72.3174 286.719 71.4124L288.529 66.5426C289.261 67.0598 290.252 67.3614 291.373 67.3614C293.054 67.3614 294.131 66.2841 294.131 64V40.8147H300.854V63.9569C300.854 69.3007 297.708 72.7053 292.105 72.7053ZM310.406 37.5825C307.906 37.5825 306.225 35.9449 306.225 33.8332C306.225 31.7216 307.906 30.0839 310.406 30.0839C312.905 30.0839 314.586 31.6354 314.586 33.7039C314.586 35.9449 312.905 37.5825 310.406 37.5825ZM307.044 64V40.8147H313.767V64H307.044ZM336.9 32.0232H343.623V64H337.201V61.3281C335.521 63.3536 333.064 64.3448 329.961 64.3448C323.411 64.3448 318.369 59.6905 318.369 52.4073C318.369 45.1242 323.411 40.4699 329.961 40.4699C332.806 40.4699 335.219 41.3749 336.9 43.2711V32.0232ZM331.125 58.8286C334.443 58.8286 337.029 56.4152 337.029 52.4073C337.029 48.3995 334.443 45.9861 331.125 45.9861C327.764 45.9861 325.178 48.3995 325.178 52.4073C325.178 56.4152 327.764 58.8286 331.125 58.8286Z" fill="white" fill-opacity="0.68"/>
</svg>
