<svg width="49" height="49" viewBox="0 0 49 49" fill="none" xmlns="http://www.w3.org/2000/svg">
<rect x="5.93994" y="3.31866" width="39.348" height="42.2795" fill="white"/>
<mask id="mask0_19_519" style="mask-type:luminance" maskUnits="userSpaceOnUse" x="0" y="0" width="49" height="49">
<path d="M0.95166 6.73793C0.95166 3.54257 3.54202 0.952209 6.73738 0.952209H43.0341C46.2295 0.952209 48.8198 3.54257 48.8198 6.73793V43.0347C48.8198 46.23 46.2295 48.8204 43.0341 48.8204H6.73738C3.54202 48.8204 0.95166 46.23 0.95166 43.0347V6.73793Z" fill="white"/>
</mask>
<g mask="url(#mask0_19_519)">
<path fill-rule="evenodd" clip-rule="evenodd" d="M48.8198 0.952209H0.95166V48.8204H48.8198V0.952209ZM10.4256 15.2109C9.39241 15.2109 8.39117 15.4423 7.12965 15.8432C7.95936 11.9659 10.4256 6.9836 10.4256 6.9836C10.4256 6.9836 12.82 11.7844 13.7085 15.8392C12.452 15.4403 11.4547 15.2109 10.4256 15.2109ZM13.6008 17.9025L13.916 18.0072V42.8847H6.93518V18.0072L7.25031 17.9025C8.73123 17.4079 9.59984 17.2044 10.4256 17.2044C11.2513 17.2044 12.1189 17.4079 13.6008 17.9025ZM17.905 32.9112V28.9222H31.8665V32.9112H29.872V31.9139C29.872 31.6494 29.7669 31.3958 29.5799 31.2088C29.3929 31.0218 29.1392 30.9167 28.8748 30.9167C28.6103 30.9167 28.3566 31.0218 28.1696 31.2088C27.9826 31.3958 27.8775 31.6494 27.8775 31.9139V32.9112H25.883V31.9139C25.883 31.6494 25.7779 31.3958 25.5909 31.2088C25.4039 31.0218 25.1502 30.9167 24.8857 30.9167C24.6213 30.9167 24.3676 31.0218 24.1806 31.2088C23.9936 31.3958 23.8885 31.6494 23.8885 31.9139V32.9112H21.894V31.9139C21.894 31.6494 21.7889 31.3958 21.6019 31.2088C21.4149 31.0218 21.1612 30.9167 20.8967 30.9167C20.6322 30.9167 20.3786 31.0218 20.1916 31.2088C20.0045 31.3958 19.8995 31.6494 19.8995 31.9139V32.9112H17.905ZM16.7013 26.9277H33.0702C33.5788 25.7758 33.861 24.4395 33.861 22.9387C33.861 19.185 30.6947 16.4585 28.0411 14.1748C27.2413 13.4867 26.4883 12.8385 25.883 12.2142V8.97811H23.8885V12.2142C23.2832 12.8385 22.5302 13.4867 21.7304 14.1748C19.0777 16.4585 15.9105 19.185 15.9105 22.9397C15.9105 24.4395 16.1937 25.7748 16.7013 26.9277ZM35.8555 18.0082L36.1707 17.9035C37.6516 17.4089 38.5202 17.2054 39.3459 17.2054C40.1716 17.2054 41.0402 17.4089 42.5212 17.9035C42.6228 17.9373 42.7292 17.9545 42.8363 17.9544V42.8857H35.8555V18.0072V18.0082ZM39.3459 15.2119C38.3128 15.2119 37.3115 15.4433 36.05 15.8442C36.8797 11.9669 39.3459 6.9846 39.3459 6.9846C39.3459 6.9846 41.7403 11.7854 42.6289 15.8402C41.3723 15.4413 40.3751 15.2119 39.3459 15.2119ZM33.861 34.9067V42.8847H29.872V41.7678C29.8719 41.0088 29.6553 40.2657 29.2476 39.6255C28.8399 38.9854 28.2581 38.4748 27.5703 38.1538L24.8857 36.9012L22.2011 38.1538C21.5133 38.4749 20.9313 38.9856 20.5236 39.6259C20.1159 40.2663 19.8994 41.0097 19.8995 41.7688V42.8847H15.9105V34.9067H33.861Z" fill="#454EA8"/>
</g>
</svg>
